<?xml version="1.0" encoding="UTF-8"?>
<svg id="_圖層_3" data-name="圖層 3" xmlns="http://www.w3.org/2000/svg" viewBox="0 0 155 153.99">
  <defs>
    <style>
      .cls-1 { fill: #fff; }
      .cls-2 { fill: #fff; }
    </style>
  </defs>
  <path class="cls-1" d="m29.28,64.57c1.7-8.37,5.47-14.48,11.31-18.33,5.84-3.85,13.14-5.75,21.9-5.71,8.53.25,16.25,1.27,23.17,3.04,6.92,1.78,12.63,2.79,17.12,3.04,3.12.04,5.48-.43,7.08-1.43,1.6-.99,3.23-2.8,4.88-5.42l.96.25c.05,4.57-1.62,8.67-4.99,12.3-3.37,3.64-8.65,5.56-15.85,5.77-1.38,0-2.84-.04-4.4-.13v56.19c4.31-.72,8.42-2.41,12.34-5.07,3.92-2.66,7.64-6.64,11.17-11.92l1.31.38c-1.97,8.84-6.22,15.79-12.76,20.86-6.53,5.07-14.91,7.67-25.13,7.8-10.86-.09-20.42-3.14-28.67-9.16-8.25-6.02-12.58-14.85-13-26.48.32-8.92,2.93-16.49,7.84-22.7,4.9-6.21,10.27-11.08,16.09-14.59-.18-.04-1.23-.14-3.13-.28-1.9-.15-3.45-.22-4.64-.22-4.77-.04-8.78.86-12.03,2.7-3.26,1.84-6.33,4.87-9.21,9.1h-1.38Zm33.9-10.78c-5.13,4.74-8.74,9.45-10.83,14.14-2.09,4.69-3.08,9.77-2.99,15.22.05,5.62,1.09,10.32,3.13,14.08,2.04,3.76,4.66,7,7.87,9.7,1.56-1.44,2.68-2.84,3.37-4.22.69-1.37,1.03-3.05,1.03-5.04v-43.5l-1.58-.38Zm15.33,2.22v31.01c.05,3.3-1.11,6.62-3.47,9.96-2.36,3.34-6.27,7.21-11.72,11.61,3.39,2.5,6.73,4.15,10.01,4.98,3.28.82,7.96,1.22,14.06,1.17v-56.76l-8.87-1.97Z"/>
  <path class="cls-2" d="m112.77,8.51c-2.16.48-5.03,3.22-6.16,5.48-2-3-1-6,2.39-7.01-9.39-.99-11.34,2.85-15,6-1.39-4.99.61-7.99,3-10-2,0-7.39,4.01-9.39,5.01-1-1-2-5-1.61-7.01-2.39,1.01-4.39,4.01-5.39,6.01-1-1.99-1.59-5.99-3.59-7-.01,0-.02,0-.03,0-1.99,1.99-2.38,5-3.38,7-1-3-5.61-6.01-5.61-6.01.61,2.01-.39,6.01-1.39,7.01-2-4-9.61-5.01-9.61-5.01,0,0,4.61,3.01,4,11-4.39-8.99-13-8-13-8,0,0,3.61,3.01,0,8-1.39-2.99-4.35-4.37-6.33-5.18C16.93,21.76,0,47.68,0,77.49s16.29,54.76,40.27,67.95c2.67-.96,6.06-2.66,7.73-5.45,2,5,0,8,0,8,0,0,10-2,13-8,1,3-4,11-4,11,0,0,6.61-.99,8.61-5.99,2,1,3,5,2,8,0,0,5-4,6-7,2,3,3.39,7.99,3.39,7.99,0,0,2.61-5.99,3.61-7.99,1,2,3.39,5.99,5.39,6.99,1.22-2.85,1.92-5.92,1.61-7.99,2,1,4,6,9.39,5.99-1-2-2.22-3.07-1.39-9.99,3.66,3.15,4.39,5.99,13.39,5.99-1-2-2-3-1-8,1.28,2.57,3.39,5.54,5.53,7.08,24.63-12.99,41.47-38.85,41.47-68.58s-17.19-56.12-42.23-68.98Zm-35.27,129.48c-33.69,0-61-27.31-61-61S43.81,15.99,77.5,15.99s61,27.31,61,61-27.31,61-61,61Z"/>
</svg>